<?xml version="1.0" standalone="no"?>
<!DOCTYPE svg PUBLIC "-//W3C//DTD SVG 20010904//EN"
 "http://www.w3.org/TR/2001/REC-SVG-20010904/DTD/svg10.dtd">
<svg version="1.0" xmlns="http://www.w3.org/2000/svg"
 width="720.000000pt" height="720.000000pt" viewBox="0 0 720.000000 720.000000"
 preserveAspectRatio="xMidYMid meet">
<metadata>
Created by potrace 1.14, written by Peter Selinger 2001-2017
</metadata>
<g transform="translate(0.000000,720.000000) scale(0.100000,-0.100000)"
fill="#000000" stroke="none">
<path d="M0 3600 l0 -3600 3600 0 3600 0 0 3600 0 3600 -3600 0 -3600 0 0
-3600z m3852 2640 c44 -46 48 -54 48 -97 -1 -59 -39 -120 -90 -145 l-35 -17 3
-1191 2 -1190 43 0 c47 -1 136 -18 178 -35 18 -7 49 27 49 53 0 8 13 42 29 76
16 33 50 113 76 176 25 63 53 129 60 145 7 17 34 82 60 145 26 63 53 129 60
145 8 17 24 55 35 85 12 30 25 60 30 65 5 6 16 33 25 60 9 28 24 66 34 85 10
19 24 53 31 75 7 22 19 49 26 60 7 11 23 49 35 85 12 36 25 67 28 70 4 3 15
28 25 55 20 55 48 120 76 177 l18 38 -37 27 c-53 38 -91 121 -91 199 0 33 5
65 12 72 7 7 9 12 4 12 -4 0 2 13 13 29 12 16 21 33 21 38 1 25 107 93 147 93
12 0 24 4 27 9 6 8 63 1 135 -19 44 -12 91 -58 126 -125 35 -65 38 -166 7
-217 -36 -59 -36 -74 -3 -124 17 -25 31 -49 31 -55 0 -5 4 -9 9 -9 5 0 13 -10
17 -22 4 -13 17 -37 30 -54 13 -17 24 -36 24 -42 0 -7 5 -12 11 -12 5 0 16
-15 24 -32 8 -18 30 -55 49 -82 20 -27 36 -53 36 -57 0 -4 25 -44 55 -88 30
-44 55 -83 55 -86 0 -3 18 -33 40 -65 22 -32 40 -62 40 -65 0 -3 27 -46 60
-94 33 -49 60 -91 60 -94 0 -3 25 -42 55 -86 30 -44 55 -84 55 -87 0 -4 20
-37 43 -73 97 -147 137 -211 137 -221 0 -5 5 -10 10 -10 6 0 10 -5 10 -10 0
-6 25 -46 55 -90 30 -44 55 -83 55 -86 0 -4 19 -36 43 -73 24 -36 67 -104 97
-151 29 -47 76 -121 105 -165 29 -44 54 -85 56 -90 2 -6 24 -41 49 -78 32 -49
50 -67 67 -67 12 0 24 4 27 8 9 14 79 6 138 -17 68 -26 132 -93 149 -155 12
-45 7 -184 -7 -195 -5 -3 -20 -23 -34 -43 -14 -21 -47 -50 -75 -65 -44 -25
-61 -28 -137 -28 -74 0 -91 3 -117 23 -17 12 -33 22 -37 22 -3 0 -42 -25 -85
-55 -43 -30 -83 -55 -88 -55 -5 0 -11 -7 -15 -15 -3 -8 -10 -15 -16 -15 -6 0
-48 -25 -93 -55 -45 -31 -89 -60 -97 -65 -8 -6 -44 -31 -80 -56 -36 -25 -75
-50 -87 -55 -13 -4 -23 -13 -23 -19 0 -5 -5 -10 -10 -10 -6 0 -34 -16 -63 -36
-28 -20 -62 -40 -74 -45 -13 -5 -23 -13 -23 -19 0 -5 -4 -10 -10 -10 -5 0
-127 -79 -270 -175 -143 -96 -265 -175 -270 -175 -6 0 -10 -5 -10 -10 0 -6
-11 -14 -23 -19 -28 -11 -330 -212 -335 -223 -2 -5 -9 -8 -15 -8 -7 0 -25 -10
-41 -23 -25 -21 -27 -26 -17 -46 21 -38 30 -122 19 -181 -12 -66 -54 -126
-118 -166 -39 -25 -54 -29 -126 -29 -71 0 -85 3 -122 27 -23 16 -45 28 -49 28
-9 0 -51 59 -54 75 -1 6 -8 19 -15 30 -17 24 -19 133 -2 186 6 22 30 58 54 82
27 28 40 47 33 54 -5 5 -19 36 -30 69 -11 32 -29 77 -39 99 -10 22 -25 63 -35
90 -9 28 -22 59 -29 70 -7 11 -21 44 -30 72 -10 29 -22 55 -27 59 -5 3 -7 10
-4 15 4 5 0 15 -7 23 -12 11 -25 11 -84 0 -118 -23 -348 -16 -434 12 -8 3 -17
6 -20 6 -42 9 -183 87 -253 141 l-38 30 -112 -108 c-62 -60 -229 -225 -372
-367 -143 -142 -264 -258 -269 -258 -16 0 -160 -154 -148 -158 22 -7 42 -60
41 -109 -1 -69 -9 -88 -53 -122 -34 -27 -47 -31 -101 -31 -59 0 -65 2 -104 40
-40 39 -41 41 -41 109 0 54 4 74 21 95 29 37 70 56 121 56 l43 1 460 453 c439
433 459 455 443 472 -25 29 -108 155 -108 165 0 20 -81 -1 -161 -41 -21 -11
-43 -20 -49 -20 -5 0 -34 -12 -63 -26 -28 -14 -72 -32 -97 -41 -25 -8 -69 -26
-98 -39 -29 -13 -57 -24 -63 -24 -6 0 -34 -11 -62 -24 -29 -13 -99 -43 -157
-66 -58 -23 -128 -53 -157 -66 -28 -13 -56 -24 -61 -24 -9 0 -182 -69 -237
-95 -16 -8 -84 -35 -150 -61 -66 -26 -142 -57 -170 -69 -27 -12 -66 -28 -85
-34 -58 -19 -66 -31 -73 -100 -4 -54 -10 -69 -36 -95 -29 -28 -38 -31 -110
-34 l-78 -4 -37 36 c-35 36 -36 39 -36 110 0 81 16 113 70 141 48 25 170 16
170 -11 0 -19 9 -18 58 6 22 11 47 20 54 20 8 0 22 6 33 13 11 8 43 22 70 32
28 11 52 21 55 24 12 14 56 34 113 52 34 11 64 23 67 27 3 4 30 16 60 26 30
10 65 25 77 33 13 7 23 11 23 7 0 -4 6 -2 13 4 7 6 35 18 62 27 28 10 74 28
103 41 29 13 58 24 65 24 7 0 21 6 32 14 11 7 23 14 27 15 12 3 80 30 113 45
17 8 57 24 90 36 33 12 83 33 112 46 28 13 56 24 62 24 6 0 39 13 73 29 35 15
81 34 103 41 22 7 45 17 51 21 6 5 35 18 65 28 98 35 111 43 105 71 -3 14 -10
63 -17 110 -6 47 -13 91 -15 98 -3 9 -115 12 -518 12 l-514 0 -7 -30 c-3 -16
-22 -43 -41 -60 -32 -28 -40 -30 -109 -30 -72 0 -76 1 -110 35 -33 34 -35 39
-35 102 0 52 5 74 21 97 39 56 138 84 191 54 29 -17 77 -68 84 -90 5 -17 36
-18 525 -18 l519 0 0 53 c0 28 7 83 15 122 8 38 15 71 15 72 0 2 -6 3 -12 3
-13 0 -179 68 -296 121 -34 16 -66 29 -71 29 -5 0 -22 7 -38 15 -15 8 -80 35
-143 61 -63 25 -138 57 -167 70 -28 13 -55 24 -59 24 -4 0 -26 8 -48 19 -23
10 -93 39 -156 65 -63 26 -128 54 -145 63 -16 8 -54 24 -84 34 -30 10 -59 23
-65 27 -6 5 -33 17 -61 27 -27 10 -78 31 -112 46 -34 16 -68 29 -75 29 -8 0
-23 7 -35 15 -12 9 -42 22 -65 31 -52 18 -317 128 -373 155 -22 10 -44 19 -49
19 -4 0 -36 13 -70 29 -33 16 -83 36 -110 45 -26 9 -57 21 -68 27 -15 8 -25 5
-49 -15 -27 -23 -40 -26 -104 -26 -72 0 -76 1 -110 35 -33 33 -35 40 -35 98 0
88 5 99 60 135 73 48 132 44 195 -13 31 -28 45 -58 45 -98 0 -32 6 -40 40 -52
6 -2 66 -28 125 -53 21 -9 42 -17 45 -18 7 -1 72 -30 137 -60 28 -13 58 -24
65 -24 7 0 27 -8 44 -19 17 -10 41 -22 55 -26 32 -10 201 -80 266 -111 28 -13
58 -24 65 -24 7 0 27 -8 43 -18 17 -9 48 -23 70 -31 22 -8 67 -26 100 -41 33
-15 71 -31 85 -35 23 -7 54 -20 165 -71 22 -10 42 -18 45 -18 9 -2 72 -28 138
-58 34 -15 67 -28 73 -28 5 0 32 -11 59 -25 27 -14 76 -35 107 -46 32 -12 86
-34 119 -50 34 -16 67 -29 73 -29 6 0 25 -9 43 -20 18 -11 39 -20 46 -20 7 0
41 -13 75 -28 34 -16 78 -34 97 -41 19 -7 51 -21 70 -31 72 -37 78 -36 100 14
10 25 42 76 70 112 27 37 50 70 50 73 0 3 -86 89 -191 191 -104 102 -336 329
-515 505 -178 176 -392 385 -475 465 l-151 145 -74 -4 c-80 -3 -144 16 -144
45 0 8 -7 17 -15 20 -24 10 -21 128 5 164 37 51 84 73 149 68 49 -3 61 -9 89
-38 39 -40 46 -64 40 -135 l-5 -54 296 -292 c163 -161 445 -441 626 -621 182
-181 333 -328 337 -328 4 0 23 -16 42 -35 37 -37 49 -41 69 -25 46 39 98 75
132 92 22 11 41 21 43 23 3 2 -21 62 -54 132 -13 28 -24 58 -24 65 0 8 -6 23
-14 33 -8 11 -12 25 -9 32 3 7 1 13 -4 13 -5 0 -17 26 -28 58 -10 31 -22 62
-27 68 -4 6 -17 36 -27 66 -10 30 -23 63 -29 74 -5 10 -17 36 -26 57 -14 34
-19 37 -56 37 -34 0 -46 6 -80 41 -38 39 -40 45 -40 102 0 49 5 66 26 94 37
49 77 66 144 61 48 -3 61 -9 88 -38 39 -40 46 -64 40 -136 -4 -44 -11 -61 -36
-87 -30 -31 -31 -34 -16 -55 8 -12 24 -47 34 -78 11 -31 24 -62 28 -68 5 -6
20 -42 32 -81 13 -38 28 -75 32 -81 4 -6 17 -37 28 -70 11 -32 26 -67 33 -78
7 -12 21 -46 32 -77 16 -48 21 -56 39 -51 12 3 27 9 34 15 7 5 15 7 19 4 3 -4
12 -2 18 3 7 6 48 13 91 17 l79 6 -2 1190 -3 1191 -27 12 c-63 29 -93 75 -93
144 0 40 6 59 27 86 36 48 68 63 132 64 53 0 56 -2 103 -50z"/>
<path d="M4760 5557 c0 -6 -3 -8 -6 -4 -11 11 -72 -43 -88 -78 -17 -36 -23
-165 -7 -165 5 0 14 -13 19 -30 7 -19 20 -32 36 -36 14 -3 26 -11 26 -16 0 -6
33 -9 83 -7 66 2 85 7 100 23 9 10 17 15 17 11 0 -4 9 0 20 10 11 10 17 21 15
26 -3 4 1 13 8 21 19 19 20 148 1 148 -8 0 -13 3 -12 8 5 26 -37 75 -59 67 -7
-2 -12 1 -10 8 1 7 -4 11 -10 10 -7 -2 -13 0 -13 5 0 4 -27 7 -60 8 -35 1 -60
-3 -60 -9z"/>
<path d="M4954 5043 c10 -169 35 -384 48 -410 5 -11 8 -26 4 -31 -3 -6 -2 -13
4 -17 5 -3 10 -16 10 -27 0 -27 28 -146 41 -173 5 -11 20 -57 33 -101 13 -45
29 -90 35 -100 5 -11 33 -68 62 -129 28 -60 62 -123 75 -141 13 -17 24 -34 24
-38 0 -4 4 -12 10 -19 30 -37 137 -181 146 -198 6 -10 23 -30 37 -43 15 -14
27 -29 27 -34 0 -4 46 -52 103 -107 148 -142 174 -165 185 -165 5 0 18 -11 28
-25 10 -14 22 -25 27 -25 4 0 37 -22 73 -50 36 -27 75 -55 87 -61 12 -7 26
-18 30 -25 4 -8 13 -14 20 -14 7 0 34 -16 61 -35 27 -19 55 -35 63 -35 7 0 13
-4 13 -10 0 -5 22 -19 50 -31 27 -12 54 -27 60 -35 12 -13 40 -9 40 6 0 12
-63 114 -72 118 -5 2 -8 8 -8 13 0 5 -18 36 -40 68 -22 32 -40 61 -40 64 0 3
-27 45 -60 94 -33 48 -60 91 -60 95 0 4 -20 36 -45 71 -25 36 -45 68 -45 71 0
4 -18 34 -40 66 -22 32 -40 64 -40 69 0 6 -4 11 -10 11 -5 0 -10 4 -10 9 0 6
-24 46 -52 90 -29 44 -69 107 -89 138 -100 159 -185 288 -191 291 -5 2 -8 9
-8 16 0 7 -13 31 -28 52 -16 21 -31 46 -34 56 -4 9 -32 53 -62 97 -31 44 -56
84 -56 87 0 4 -22 40 -50 80 -27 40 -50 76 -50 80 0 3 -21 38 -48 77 -26 40
-53 81 -59 92 -50 83 -88 141 -95 143 -4 2 -8 10 -8 18 0 8 -4 14 -10 14 -5 0
-10 6 -10 13 0 18 -59 97 -72 97 -8 0 -9 -37 -4 -117z"/>
<path d="M4753 5118 c-5 -7 -15 -29 -23 -48 -7 -19 -23 -57 -35 -85 -13 -27
-26 -61 -30 -75 -4 -14 -16 -41 -26 -60 -10 -19 -25 -57 -34 -85 -9 -27 -20
-54 -25 -60 -4 -5 -19 -40 -33 -76 -14 -36 -29 -75 -35 -85 -5 -10 -17 -37
-26 -59 -31 -78 -39 -100 -41 -105 -1 -3 -9 -23 -19 -45 -35 -77 -45 -101 -91
-215 -26 -63 -57 -137 -70 -165 -13 -27 -26 -61 -30 -75 -4 -14 -15 -41 -25
-60 -10 -19 -24 -51 -31 -70 -7 -19 -27 -66 -44 -105 -34 -75 -50 -127 -38
-123 11 4 116 -57 132 -76 7 -9 18 -16 23 -16 6 0 22 -14 37 -30 l26 -31 50
51 c46 47 49 52 33 64 -14 10 -18 28 -18 76 0 70 18 105 74 139 48 30 166 27
166 -4 0 -8 9 -16 19 -20 27 -8 44 -67 39 -133 -4 -48 -10 -60 -41 -89 -34
-31 -42 -33 -105 -33 l-68 0 -48 -49 c-43 -44 -46 -50 -32 -64 9 -8 16 -19 16
-22 0 -4 13 -24 30 -45 16 -21 39 -57 49 -81 l20 -44 0 48 c2 104 70 158 185
145 32 -4 51 -14 75 -38 39 -41 45 -65 38 -138 -5 -49 -11 -62 -41 -89 -33
-31 -41 -33 -107 -33 -49 0 -75 4 -85 15 -21 20 -37 19 -30 -2 13 -41 26 -129
26 -174 l0 -49 847 2 847 3 7 30 c3 17 8 36 10 44 3 9 -20 27 -62 50 -59 32
-148 84 -229 133 -15 9 -56 37 -91 62 -35 26 -75 54 -88 64 -85 60 -251 214
-332 307 -38 44 -78 89 -88 100 -10 11 -21 28 -24 38 -4 9 -11 17 -17 17 -5 0
-10 4 -10 10 0 5 -20 36 -45 69 -82 108 -225 392 -255 506 -7 28 -17 55 -21
60 -4 6 -17 51 -28 100 -12 50 -28 113 -36 140 -16 57 -45 256 -45 315 0 22
-4 40 -8 40 -5 0 -9 28 -10 63 -1 34 -5 88 -8 120 l-6 57 -53 0 c-30 0 -57 -5
-62 -12z"/>
<path d="M3662 3479 c-460 -66 -737 -528 -573 -954 139 -359 547 -543 903
-406 98 38 177 89 249 162 87 87 130 158 174 284 25 71 28 95 28 205 1 69 -5
145 -11 170 -59 215 -183 371 -370 465 -123 62 -280 91 -400 74z"/>
<path d="M6402 2919 c-23 -17 -42 -37 -42 -45 0 -8 -4 -14 -8 -14 -12 0 -15
-155 -3 -177 5 -10 12 -26 15 -36 3 -10 10 -15 16 -12 5 3 10 1 10 -4 0 -6 7
-11 15 -11 8 0 15 -5 15 -11 0 -6 30 -10 83 -8 70 2 87 6 114 27 38 28 66 78
58 103 -3 9 -1 20 5 24 6 3 8 11 4 16 -3 5 -10 7 -15 4 -5 -3 -6 1 -3 9 3 9
10 16 14 16 5 0 6 9 3 20 -3 11 -8 20 -12 20 -4 0 -15 16 -24 35 -18 38 -92
82 -102 61 -3 -8 -7 -7 -11 2 -3 7 -24 12 -48 12 -31 0 -53 -8 -84 -31z"/>
<path d="M5373 2723 l-813 -3 0 -29 c0 -99 -40 -218 -129 -380 -17 -32 -193
-209 -218 -219 -10 -4 -44 -22 -76 -41 -44 -25 -57 -38 -52 -50 4 -9 16 -40
26 -70 10 -30 23 -59 28 -65 5 -6 17 -34 26 -61 10 -28 27 -72 40 -100 12 -27
28 -68 35 -90 7 -22 19 -49 26 -60 8 -11 14 -27 14 -37 0 -23 18 -32 35 -18 8
6 37 10 66 9 l52 -3 61 110 c34 60 73 125 87 144 14 19 29 42 32 50 11 31 145
189 247 291 100 100 226 207 273 232 12 7 44 27 70 46 51 35 264 143 307 156
14 4 27 11 30 14 3 4 32 15 65 25 33 11 65 22 70 27 6 4 57 19 115 33 58 15
114 29 125 32 42 12 232 43 263 44 20 0 31 4 27 10 -3 6 -9 9 -13 8 -4 -2
-373 -4 -819 -5z"/>
<path d="M6215 2655 c-5 -1 -65 -11 -132 -21 -68 -9 -123 -22 -123 -27 0 -5
-7 -6 -15 -3 -9 3 -23 2 -33 -4 -9 -5 -51 -17 -92 -26 -41 -9 -82 -21 -90 -25
-8 -4 -40 -15 -70 -25 -52 -15 -97 -34 -200 -83 -293 -139 -594 -407 -803
-714 -37 -54 -67 -99 -67 -101 0 -6 -67 -116 -81 -132 -11 -14 -10 -19 11 -36
15 -12 26 -15 28 -9 2 6 8 11 13 11 4 0 90 55 189 123 99 67 188 127 198 132
9 6 47 31 84 58 37 26 72 47 78 47 5 0 10 5 10 10 0 6 5 10 11 10 6 0 47 25
91 55 44 30 82 55 84 55 3 0 43 27 90 60 46 33 87 60 90 60 3 0 34 20 68 45
35 25 66 45 69 45 3 0 18 11 33 25 15 14 31 25 35 25 5 0 41 23 80 51 39 28
78 53 88 56 9 4 53 33 99 65 45 32 85 58 88 58 3 0 43 27 90 60 46 33 87 60
91 60 3 0 21 11 39 25 33 25 33 27 18 50 -15 23 -39 30 -69 20z"/>
<path d="M4302 1404 c-12 -8 -20 -19 -17 -24 3 -4 -3 -6 -14 -3 -16 4 -33 -8
-37 -27 0 -3 -6 -17 -12 -33 -16 -38 -18 -130 -4 -135 7 -2 12 -9 12 -16 0
-16 42 -56 58 -56 7 0 12 -4 12 -10 0 -5 24 -10 53 -10 64 0 134 33 156 74 30
53 10 179 -33 215 -8 7 -33 15 -56 18 -22 3 -40 10 -40 14 0 15 -54 10 -78 -7z"/>
</g>
</svg>
